Coordinates
version=1
nRows=4
nColumns=107
inDegrees=yes

Units are S.I. units (second, meters, Newtons, ...)
If the header above contains a line with 'inDegrees', this indicates whether rotational values are in degrees (yes) or radians (no).

endheader
time	sternoclavicular_r2	sternoclavicular_r3	unrotscap_r3	unrotscap_r2	acromioclavicular_r2	acromioclavicular_r3	acromioclavicular_r1	unrothum_r1	unrothum_r3	unrothum_r2	elv_angle	shoulder_elv	shoulder1_r2	shoulder_rot	elbow_flexion	pro_sup	deviation	flexion	proximal_distal_r1	proximal_distal_r3	cmc_flexion	cmc_abduction	mp_flexion	ip_flexion	mcp2_flexion	mcp2_abduction	pm2_flexion	md2_flexion	mcp3_flexion	mcp3_abduction	pm3_flexion	md3_flexion	mcp4_flexion	mcp4_abduction	pm4_flexion	md4_flexion	mcp5_flexion	mcp5_abduction	pm5_flexion	md5_flexion	bicpt_tx	bicpt_ty	bicpt_tz	bicpt2_tx	bicpt2_ty	bicpt2_tz	ptpt_tx	ptpt_ty	ptpt_tz	FCUpt_tx	FCUpt_ty	FCUpt_tz	EDCpt_tx	EDCpt_ty	EDCpt_tz	APLpt_tx	APLpt_ty	APLpt_tz	FPLpt_tx	FPLpt_ty	FPLpt_tz	FPLpt2_tx	FPLpt2_ty	FPLpt2_tz	PEC1pt2_tx	PEC1pt2_ty	PEC1pt2_tz	PEC1pt3_tx	PEC1pt3_ty	PEC1pt3_tz	PEC2pt2_tx	PEC2pt2_ty	PEC2pt2_tz	PEC2pt3_tx	PEC2pt3_ty	PEC2pt3_tz	PEC3pt2_tx	PEC3pt2_ty	PEC3pt2_tz	PEC3pt3_tx	PEC3pt3_ty	PEC3pt3_tz	DELT2pt2a_tx	DELT2pt2a_ty	DELT2pt2a_tz	DELT2pt2_tx	DELT2pt2_ty	DELT2pt2_tz	LAT1pt2_tx	LAT1pt2_ty	LAT1pt2_tz	LAT1pt3_tx	LAT1pt3_ty	LAT1pt3_tz	LAT2pt2_tx	LAT2pt2_ty	LAT2pt2_tz	LAT2pt3_tx	LAT2pt3_ty	LAT2pt3_tz	LAT3pt2_tx	LAT3pt2_ty	LAT3pt2_tz	LAT3pt3_tx	LAT3pt3_ty	LAT3pt3_tz
      0.83333333	     -0.32571328	      0.13795677	     -0.13795677	      0.32571328	     -0.06595031	      0.53298723	      0.23957409	     -0.23957409	     -0.53298723	      0.06595031	     98.76208857	     77.11551374	     -1.72372362	    -21.15154196	     29.39697638	     42.81383522	      0.11749874	     -0.07017327	      0.14816206	     -0.03508664	     32.97618785	    -14.32806847	      7.81836055	     12.24527505	     -9.64660915	     10.78343249	     13.17866493	    -27.48885303	     -8.65123755	     -0.68131537	      6.08636157	      9.19046628	     -9.70355157	     -3.44753392	    -14.01307981	     19.61686626	    -24.32683285	    -13.93086039	     -2.04708726	      5.05248165	      0.00087236	     -0.03096934	     -0.00484271	      0.01657061	     -0.01818583	     -0.00716410	      0.00438654	     -0.06694555	     -0.00349888	      0.00806475	     -0.18343541	     -0.00040341	     -0.00513765	      0.00149593	      0.00012407	      0.00006767	      0.00002707	      0.00013535	      0.00008662	      0.00025987	      0.00014617	     -0.00001170	     -0.00022028	     -0.00026433	      0.00252768	      0.00886829	      0.00616925	     -0.00826850	      0.01996437	     -0.01893616	      0.00252768	      0.00886829	      0.00616925	      0.00055695	      0.01850774	     -0.00972513	      0.00398368	      0.00493154	      0.01605435	      0.00000000	      0.00795444	      0.00000000	     -0.00724030	     -0.03345959	     -0.00655976	      0.01443189	     -0.00046756	     -0.00370832	     -0.00089968	      0.01508038	     -0.00616925	      0.00248484	      0.02176373	     -0.01799364	     -0.00604072	      0.01306681	     -0.00552662	     -0.01259554	      0.02759024	     -0.03088907	     -0.02364878	      0.01460912	     -0.00741166	     -0.01568017	      0.03187444	     -0.03860063
      0.86666667	     -0.32474490	      0.13754661	     -0.13754661	      0.32474490	     -0.06575424	      0.53140260	      0.23886181	     -0.23886181	     -0.53140260	      0.06575424	     98.93834614	     76.88624088	     -1.72679990	    -22.16717816	     29.58408734	     44.86199999	      0.13166634	     -0.05150698	      0.16450071	     -0.02575349	     32.88632231	    -14.07196873	      4.94774947	     12.57565294	     -8.87938392	     10.25623506	     14.38028063	    -26.51257172	     -7.52124316	     -0.65528653	      6.46422546	      9.51350814	     -8.30704329	     -3.65593476	    -13.26661949	     19.18169549	    -22.39036212	    -13.94399648	     -2.14963539	      5.07074278	      0.00087855	     -0.03099079	     -0.00484617	      0.01655645	     -0.01823666	     -0.00693443	      0.00423520	     -0.06704340	     -0.00366387	      0.00827339	     -0.18339057	     -0.00041203	     -0.00538343	      0.00158167	      0.00010511	      0.00005048	      0.00002019	      0.00010096	      0.00006461	      0.00019384	      0.00010904	     -0.00001164	     -0.00022132	     -0.00026559	      0.00252016	      0.00884193	      0.00615090	     -0.00824392	      0.01990501	     -0.01887986	      0.00252016	      0.00884193	      0.00615090	      0.00055529	      0.01845271	     -0.00969622	      0.00397507	      0.00491688	      0.01603359	      0.00000000	      0.00790687	      0.00000000	     -0.00721877	     -0.03336011	     -0.00652028	      0.01499542	     -0.00049941	     -0.00408698	     -0.00089701	      0.01503554	     -0.00615090	      0.00247745	      0.02169902	     -0.01794014	     -0.00602276	      0.01302796	     -0.00551019	     -0.01255810	      0.02750821	     -0.03079724	     -0.02357847	      0.01456568	     -0.00738963	     -0.01563355	      0.03177967	     -0.03848587
      0.90000000	     -0.32487895	      0.13760339	     -0.13760339	      0.32487895	     -0.06578138	      0.53162197	      0.23896042	     -0.23896042	     -0.53162197	      0.06578138	     98.84994213	     76.91798009	     -1.72525696	    -22.04974045	     29.72187291	     45.15743811	      0.13541729	     -0.04518632	      0.16877118	     -0.02259316	     31.54946800	    -14.00461761	      3.85590255	     12.27386114	     -8.08731689	      9.53391979	     15.14652596	    -26.11181872	     -6.84945384	     -0.88639496	      6.94838209	      9.78700294	     -7.57396831	     -4.03504431	    -12.56507776	     19.35017875	    -21.37737146	    -13.96189775	     -1.53420669	      5.14430596	      0.00088311	     -0.03100658	     -0.00484871	      0.01655362	     -0.01827409	     -0.00690082	      0.00421337	     -0.06705752	     -0.00368767	      0.00830359	     -0.18338400	     -0.00041302	     -0.00541888	      0.00159415	      0.00010219	      0.00004452	      0.00001781	      0.00008904	      0.00005699	      0.00017096	      0.00009617	     -0.00001042	     -0.00023576	     -0.00028291	      0.00252120	      0.00884558	      0.00615344	     -0.00824732	      0.01991323	     -0.01888765	      0.00252120	      0.00884558	      0.00615344	      0.00055552	      0.01846033	     -0.00970022	      0.00397627	      0.00491891	      0.01603647	      0.00000000	      0.00791345	      0.00000000	     -0.00722175	     -0.03337389	     -0.00652574	      0.01493098	     -0.00049571	     -0.00404239	     -0.00089738	      0.01504175	     -0.00615344	      0.00247847	      0.02170798	     -0.01794754	     -0.00602525	      0.01303334	     -0.00551246	     -0.01256328	      0.02751957	     -0.03080995	     -0.02358820	      0.01457170	     -0.00739268	     -0.01564000	      0.03179279	     -0.03850175
      0.93333333	     -0.32495894	      0.13763727	     -0.13763727	      0.32495894	     -0.06579758	      0.53175286	      0.23901925	     -0.23901925	     -0.53175286	      0.06579758	     98.75491174	     76.93691801	     -1.72359836	    -21.99874225	     29.88929761	     45.50034839	      0.13891508	     -0.03844773	      0.17273264	     -0.01922386	     29.69864313	    -14.04311304	      2.49980780	     11.84834683	     -7.27431416	      8.69401924	     15.95932404	    -25.75431468	     -6.09766124	     -0.98019818	      7.41715136	     10.01777615	     -6.70308816	     -4.23597588	    -11.80443277	     19.58157021	    -20.06871889	    -13.95444219	     -0.78955667	      5.24414939	      0.00088865	     -0.03102577	     -0.00485180	      0.01655008	     -0.01831957	     -0.00686165	      0.00418804	     -0.06707390	     -0.00371530	      0.00833867	     -0.18337635	     -0.00041407	     -0.00546003	      0.00160866	      0.00009874	      0.00003810	      0.00001524	      0.00007620	      0.00004877	      0.00014630	      0.00008229	     -0.00000813	     -0.00025246	     -0.00030296	      0.00252182	      0.00884775	      0.00615496	     -0.00824935	      0.01991813	     -0.01889230	      0.00252182	      0.00884775	      0.00615496	      0.00055566	      0.01846488	     -0.00970261	      0.00397698	      0.00492012	      0.01603819	      0.00000000	      0.00791737	      0.00000000	     -0.00722353	     -0.03338210	     -0.00652900	      0.01490292	     -0.00049410	     -0.00402310	     -0.00089760	      0.01504545	     -0.00615496	      0.00247908	      0.02171333	     -0.01795196	     -0.00602673	      0.01303654	     -0.00551382	     -0.01256637	      0.02752634	     -0.03081754	     -0.02359401	      0.01457528	     -0.00739450	     -0.01564385	      0.03180062	     -0.03851123
